<svg version="1.1" id="Layer_1" xmlns="http://www.w3.org/2000/svg" xmlns:xlink="http://www.w3.org/1999/xlink" x="0px" y="0px"
	 width="100%" viewBox="0 0 360 360" enable-background="new 0 0 360 360" xml:space="preserve">
<path fill="#000000" opacity="1.000000" stroke="none" 
	d="
M361.000000,133.000000 
	C361.000000,209.333298 361.000000,285.166595 361.000000,360.999939 
	C241.000076,360.999939 121.000137,360.999939 1.000158,360.999969 
	C1.000105,241.000107 1.000105,121.000229 1.000053,1.000254 
	C120.999847,1.000170 240.999695,1.000170 360.999756,1.000085 
	C361.000000,44.833332 361.000000,88.666664 361.000000,133.000000 
M134.182144,105.994423 
	C130.997177,104.786163 127.812218,103.577911 124.627251,102.369652 
	C124.196312,103.046745 123.765373,103.723846 123.334427,104.400940 
	C126.458176,107.047150 129.581924,109.693359 132.314316,112.708328 
	C132.185822,112.833290 132.057312,112.958244 131.184525,112.994835 
	C128.309814,111.831131 125.435097,110.667435 122.560379,109.503731 
	C122.163582,110.087341 121.766777,110.670944 121.369980,111.254547 
	C123.725677,113.707466 126.081383,116.160378 128.955887,119.153519 
	C125.796547,118.676788 123.513458,118.332283 121.230377,117.987770 
	C121.603020,120.420631 122.444832,121.955292 123.653145,123.104637 
	C131.774948,130.830063 139.740463,138.613052 145.947205,148.126923 
	C147.711838,150.831818 152.029419,154.037872 154.640793,153.625275 
	C163.127365,152.284378 164.774643,157.830139 166.745407,163.503891 
	C167.634598,166.063858 168.121582,168.763535 168.777603,171.346848 
	C147.267059,189.153061 133.569733,211.663498 127.246025,238.699005 
	C121.267479,234.849075 116.983070,227.930603 107.173782,227.911041 
	C106.112381,238.321701 104.228958,248.400757 104.294052,258.467224 
	C104.362038,268.981873 111.251938,277.211182 116.576096,286.036224 
	C108.253502,279.074585 100.145256,271.996887 93.548141,263.715363 
	C75.430420,240.971771 65.797501,214.565475 63.146019,185.778076 
	C61.540680,168.348785 63.889095,150.973526 69.477692,134.482559 
	C77.791595,109.949692 90.958900,88.404137 111.029182,71.232552 
	C124.637405,59.589722 139.545059,50.656452 156.202530,44.372578 
	C170.537308,38.964920 185.580521,36.468929 200.651978,36.427387 
	C212.701157,36.394173 224.752533,39.323254 236.815201,40.839893 
	C241.065308,41.374260 245.351837,41.619026 249.621735,41.996017 
	C249.742676,41.480549 249.863617,40.965080 249.984573,40.449608 
	C248.943176,39.964539 247.933029,39.390957 246.854828,39.010048 
	C242.674179,37.533096 238.529434,35.911411 234.265976,34.720787 
	C224.634399,32.031055 215.021088,27.837549 205.254089,27.380354 
	C186.790390,26.516060 168.114639,25.462065 149.787750,29.995125 
	C130.731155,34.708668 113.055435,42.503994 96.941124,53.644154 
	C85.324631,61.674881 75.268204,71.452377 66.129150,82.267937 
	C53.271076,97.484749 44.239212,114.805969 38.169247,133.548767 
	C31.334120,154.654236 29.635548,176.378021 31.839069,198.578903 
	C33.719440,217.523987 39.069649,235.303345 47.730682,252.005356 
	C58.421127,272.620911 73.043205,290.122864 91.672318,304.245789 
	C118.399384,324.507874 148.601212,334.860474 181.928955,335.847229 
	C192.455917,336.158905 203.090973,335.136505 213.579575,333.901093 
	C230.715210,331.882812 246.709183,326.072632 261.810608,317.739166 
	C278.130249,308.733459 292.346832,297.037933 304.859406,283.360992 
	C309.502197,278.286133 312.935791,272.105042 316.920807,266.428436 
	C316.294617,265.745148 315.668427,265.061859 315.042206,264.378571 
	C312.861115,265.589539 310.219666,266.359131 308.570068,268.079712 
	C292.040497,285.320557 273.347534,299.460419 250.871414,307.964661 
	C231.363190,315.345978 211.297821,318.665405 190.264832,316.210327 
	C178.668121,314.856720 167.539474,312.359711 156.437531,308.602509 
	C164.168182,296.030792 176.708633,292.239746 189.394257,289.085114 
	C202.941147,285.716309 215.229477,280.232056 224.938019,269.984711 
	C239.352692,254.770004 247.901489,236.009766 256.360992,217.218094 
	C257.650696,214.353210 256.496735,213.167923 253.663391,213.014130 
	C241.276352,212.341736 228.870255,210.920700 216.507584,211.229996 
	C205.701309,211.500351 195.024338,214.034927 185.023544,218.131119 
	C185.349121,215.212952 186.146896,212.256332 185.912949,209.383728 
	C185.169907,200.260330 183.807632,191.184509 183.176559,182.056274 
	C182.917648,178.311356 179.896408,173.442383 183.899521,171.890854 
	C190.368439,172.762772 195.011658,174.109055 199.534058,173.782455 
	C203.540024,173.493134 207.377533,171.229782 211.349411,170.037811 
	C220.490952,167.294418 229.679443,164.707214 238.815826,161.947220 
	C239.715454,161.675446 240.386505,160.646988 241.163651,159.969757 
	C240.920059,159.487564 240.676453,159.005371 240.432861,158.523178 
	C232.188507,159.191498 223.944168,159.859818 215.699814,160.528122 
	C215.664932,160.363907 215.630035,160.199677 215.595154,160.035461 
	C225.105911,157.893234 234.616669,155.751007 244.127426,153.608795 
	C243.992569,152.795181 243.857712,151.981583 243.722855,151.167984 
	C233.088547,151.892731 222.454239,152.617477 211.819916,153.342224 
	C220.941528,150.962860 230.195633,149.422302 239.473007,148.037582 
	C242.116959,147.642960 245.046341,148.066803 246.497925,143.470016 
	C233.950562,144.183701 222.344986,144.843811 210.739410,145.503922 
	C210.699265,145.253815 210.659119,145.003708 210.618988,144.753601 
	C223.462814,142.841187 236.306625,140.928772 249.150452,139.016357 
	C249.055222,138.343781 248.959991,137.671219 248.864746,136.998642 
	C240.568130,136.998642 232.206635,136.349426 223.992050,137.170288 
	C214.657898,138.103027 205.255569,139.655273 196.256592,142.239594 
	C188.682297,144.414780 183.901291,150.373444 181.954544,158.307785 
	C181.384354,160.631683 180.242661,162.815353 179.252686,165.344894 
	C177.325424,161.578522 175.650558,158.806747 174.468109,155.838821 
	C173.489777,153.383179 171.922836,150.306320 172.632309,148.175995 
	C176.565170,136.366806 173.205521,126.599831 164.280823,119.018051 
	C155.862000,111.866005 146.675629,105.575645 137.529572,99.342529 
	C133.992142,96.931740 129.861603,94.453758 124.432961,96.952438 
	C128.500885,99.979057 132.103287,102.659309 135.314316,105.708328 
	C135.185822,105.833290 135.057312,105.958244 134.182144,105.994423 
M236.706223,48.860855 
	C224.997757,47.244545 213.325546,44.799187 201.568878,44.284832 
	C192.800385,43.901207 183.807495,45.425701 175.116013,47.128689 
	C152.308029,51.597649 132.370712,62.171383 115.041794,77.524147 
	C97.058716,93.456474 85.097824,113.183235 78.779442,136.405930 
	C75.023384,150.211044 72.896820,164.114761 74.348251,178.523102 
	C78.336403,180.089539 79.363480,177.525085 79.900818,174.631760 
	C80.710503,170.271881 81.184204,165.848816 82.021034,161.494949 
	C87.384438,133.590195 100.969292,110.190262 123.152534,92.732933 
	C146.530594,74.335312 173.380981,65.295929 203.676666,67.891441 
	C217.681152,69.091248 230.911743,72.762787 243.362473,78.864410 
	C265.263641,89.597343 282.124695,105.729462 294.159668,127.152267 
	C306.563385,149.231476 310.640900,172.876831 307.709320,197.563477 
	C305.845245,213.260757 300.696594,228.273666 292.062500,241.850311 
	C285.099670,252.798981 277.434326,263.234802 266.687927,270.658051 
	C257.106232,277.276764 246.867493,282.944885 236.911957,289.021454 
	C233.874268,290.875580 230.814133,292.692963 227.764267,294.527161 
	C229.132156,295.785645 229.998718,296.145752 230.697968,295.939240 
	C234.788681,294.731110 238.788361,293.188873 242.913422,292.127167 
	C269.634949,285.249756 290.439667,269.756378 306.552643,247.829407 
	C319.738678,229.885468 327.689026,209.825089 330.144928,187.463470 
	C332.105682,169.610428 330.967865,152.149536 325.852203,135.053497 
	C318.375397,110.066788 304.500305,89.205673 284.204437,72.662590 
	C270.345154,61.365967 254.781815,53.529049 236.706223,48.860855 
z"/>
<path fill="#3AAF01" opacity="1.000000" stroke="none" 
	d="
M185.165100,218.998260 
	C195.024338,214.034927 205.701309,211.500351 216.507584,211.229996 
	C228.870255,210.920700 241.276352,212.341736 253.663391,213.014130 
	C256.496735,213.167923 257.650696,214.353210 256.360992,217.218094 
	C247.901489,236.009766 239.352692,254.770004 224.938019,269.984711 
	C215.229477,280.232056 202.941147,285.716309 189.394257,289.085114 
	C176.708633,292.239746 164.168182,296.030792 156.437531,308.602509 
	C167.539474,312.359711 178.668121,314.856720 190.264832,316.210327 
	C211.297821,318.665405 231.363190,315.345978 250.871414,307.964661 
	C273.347534,299.460419 292.040497,285.320557 308.570068,268.079712 
	C310.219666,266.359131 312.861115,265.589539 315.042206,264.378571 
	C315.668427,265.061859 316.294617,265.745148 316.920807,266.428436 
	C312.935791,272.105042 309.502197,278.286133 304.859406,283.360992 
	C292.346832,297.037933 278.130249,308.733459 261.810608,317.739166 
	C246.709183,326.072632 230.715210,331.882812 213.579575,333.901093 
	C203.090973,335.136505 192.455917,336.158905 181.928955,335.847229 
	C148.601212,334.860474 118.399384,324.507874 91.672318,304.245789 
	C73.043205,290.122864 58.421127,272.620911 47.730682,252.005356 
	C39.069649,235.303345 33.719440,217.523987 31.839069,198.578903 
	C29.635548,176.378021 31.334120,154.654236 38.169247,133.548767 
	C44.239212,114.805969 53.271076,97.484749 66.129150,82.267937 
	C75.268204,71.452377 85.324631,61.674881 96.941124,53.644154 
	C113.055435,42.503994 130.731155,34.708668 149.787750,29.995125 
	C168.114639,25.462065 186.790390,26.516060 205.254089,27.380354 
	C215.021088,27.837549 224.634399,32.031055 234.265976,34.720787 
	C238.529434,35.911411 242.674179,37.533096 246.854828,39.010048 
	C247.933029,39.390957 248.943176,39.964539 249.984573,40.449608 
	C249.863617,40.965080 249.742676,41.480549 249.621735,41.996017 
	C245.351837,41.619026 241.065308,41.374260 236.815201,40.839893 
	C224.752533,39.323254 212.701157,36.394173 200.651978,36.427387 
	C185.580521,36.468929 170.537308,38.964920 156.202530,44.372578 
	C139.545059,50.656452 124.637405,59.589722 111.029182,71.232552 
	C90.958900,88.404137 77.791595,109.949692 69.477692,134.482559 
	C63.889095,150.973526 61.540680,168.348785 63.146019,185.778076 
	C65.797501,214.565475 75.430420,240.971771 93.548141,263.715363 
	C100.145256,271.996887 108.253502,279.074585 116.576096,286.036224 
	C111.251938,277.211182 104.362038,268.981873 104.294052,258.467224 
	C104.228958,248.400757 106.112381,238.321701 107.173782,227.911041 
	C116.983070,227.930603 121.267479,234.849075 127.618408,239.193237 
	C133.271576,243.792542 138.552338,247.897598 143.998001,252.306168 
	C146.489578,256.525970 149.998428,260.194916 150.881027,264.413361 
	C152.414001,271.740295 152.323807,279.406830 152.655090,287.083771 
	C152.286163,287.942688 152.176346,288.648834 152.013474,289.696136 
	C152.542099,289.229950 152.782242,289.080750 152.935837,288.868835 
	C153.202026,288.501648 153.414627,288.095642 153.910309,287.465210 
	C156.009949,283.821564 157.848984,280.418671 159.945541,276.539246 
	C153.871445,278.491364 153.677734,274.821350 154.022308,270.763672 
	C154.285645,267.662262 154.237030,264.441437 155.105637,261.503937 
	C156.843277,255.627472 159.114548,249.908813 161.469727,243.983459 
	C162.915512,242.445694 163.985870,240.983307 165.211166,239.664932 
	C170.048737,234.459778 174.910858,229.276840 179.816238,224.135620 
	C181.521164,222.348724 183.377777,220.706543 185.165100,218.998260 
M120.482315,288.323029 
	C120.113632,288.189758 119.744949,288.056488 119.376274,287.923218 
	C119.617126,288.205109 119.857979,288.486969 120.482315,288.323029 
z"/>
<path fill="#3AAF01" opacity="1.000000" stroke="none" 
	d="
M237.117279,48.915779 
	C254.781815,53.529049 270.345154,61.365967 284.204437,72.662590 
	C304.500305,89.205673 318.375397,110.066788 325.852203,135.053497 
	C330.967865,152.149536 332.105682,169.610428 330.144928,187.463470 
	C327.689026,209.825089 319.738678,229.885468 306.552643,247.829407 
	C290.439667,269.756378 269.634949,285.249756 242.913422,292.127167 
	C238.788361,293.188873 234.788681,294.731110 230.697968,295.939240 
	C229.998718,296.145752 229.132156,295.785645 227.764267,294.527161 
	C230.814133,292.692963 233.874268,290.875580 236.911957,289.021454 
	C246.867493,282.944885 257.106232,277.276764 266.687927,270.658051 
	C277.434326,263.234802 285.099670,252.798981 292.062500,241.850311 
	C300.696594,228.273666 305.845245,213.260757 307.709320,197.563477 
	C310.640900,172.876831 306.563385,149.231476 294.159668,127.152267 
	C282.124695,105.729462 265.263641,89.597343 243.362473,78.864410 
	C230.911743,72.762787 217.681152,69.091248 203.676666,67.891441 
	C173.380981,65.295929 146.530594,74.335312 123.152534,92.732933 
	C100.969292,110.190262 87.384438,133.590195 82.021034,161.494949 
	C81.184204,165.848816 80.710503,170.271881 79.900818,174.631760 
	C79.363480,177.525085 78.336403,180.089539 74.348251,178.523102 
	C72.896820,164.114761 75.023384,150.211044 78.779442,136.405930 
	C85.097824,113.183235 97.058716,93.456474 115.041794,77.524147 
	C132.370712,62.171383 152.308029,51.597649 175.116013,47.128689 
	C183.807495,45.425701 192.800385,43.901207 201.568878,44.284832 
	C213.325546,44.799187 224.997757,47.244545 237.117279,48.915779 
z"/>
<path fill="#F7931D" opacity="1.000000" stroke="none" 
	d="
M185.094330,218.564697 
	C183.377777,220.706543 181.521164,222.348724 179.816238,224.135620 
	C174.910858,229.276840 170.048737,234.459778 165.211166,239.664932 
	C163.985870,240.983307 162.915512,242.445694 161.397247,243.574524 
	C161.035461,242.476166 160.800552,241.538651 161.102646,240.830124 
	C165.884048,229.616455 170.443085,218.288544 171.415115,206.015549 
	C171.963928,199.086258 171.514114,192.077866 171.514114,184.133926 
	C152.163483,203.403183 146.870544,227.243210 143.833115,252.002670 
	C138.552338,247.897598 133.271576,243.792542 127.912247,239.343338 
	C133.569733,211.663498 147.267059,189.153061 168.777603,171.346848 
	C168.121582,168.763535 167.634598,166.063858 166.745407,163.503891 
	C164.774643,157.830139 163.127365,152.284378 154.640793,153.625275 
	C152.029419,154.037872 147.711838,150.831818 145.947205,148.126923 
	C139.740463,138.613052 131.774948,130.830063 123.653145,123.104637 
	C122.444832,121.955292 121.603020,120.420631 121.230377,117.987770 
	C123.513458,118.332283 125.796547,118.676788 128.955887,119.153519 
	C126.081383,116.160378 123.725677,113.707466 121.369980,111.254547 
	C121.766777,110.670944 122.163582,110.087341 122.560379,109.503731 
	C125.435097,110.667435 128.309814,111.831131 131.668823,113.310478 
	C132.607513,113.678696 133.061905,113.731277 133.516312,113.783852 
	C133.246094,113.302422 132.975891,112.820992 132.705673,112.339561 
	C129.581924,109.693359 126.458176,107.047150 123.334427,104.400940 
	C123.765373,103.723846 124.196312,103.046745 124.627251,102.369652 
	C127.812218,103.577911 130.997177,104.786163 134.667633,106.310272 
	C135.607513,106.678696 136.061905,106.731277 136.516312,106.783852 
	C136.246109,106.302422 135.975891,105.820992 135.705673,105.339561 
	C132.103287,102.659309 128.500885,99.979057 124.432961,96.952438 
	C129.861603,94.453758 133.992142,96.931740 137.529572,99.342529 
	C146.675629,105.575645 155.862000,111.866005 164.280823,119.018051 
	C173.205521,126.599831 176.565170,136.366806 172.632309,148.175995 
	C171.922836,150.306320 173.489777,153.383179 174.468109,155.838821 
	C175.650558,158.806747 177.325424,161.578522 179.252686,165.344894 
	C180.242661,162.815353 181.384354,160.631683 181.954544,158.307785 
	C183.901291,150.373444 188.682297,144.414780 196.256592,142.239594 
	C205.255569,139.655273 214.657898,138.103027 223.992050,137.170288 
	C232.206635,136.349426 240.568130,136.998642 248.864746,136.998642 
	C248.959991,137.671219 249.055222,138.343781 249.150452,139.016357 
	C236.306625,140.928772 223.462814,142.841187 210.618988,144.753601 
	C210.659119,145.003708 210.699265,145.253815 210.739410,145.503922 
	C222.344986,144.843811 233.950562,144.183701 246.497925,143.470016 
	C245.046341,148.066803 242.116959,147.642960 239.473007,148.037582 
	C230.195633,149.422302 220.941528,150.962860 211.819916,153.342224 
	C222.454239,152.617477 233.088547,151.892731 243.722855,151.167984 
	C243.857712,151.981583 243.992569,152.795181 244.127426,153.608795 
	C234.616669,155.751007 225.105911,157.893234 215.595154,160.035461 
	C215.630035,160.199677 215.664932,160.363907 215.699814,160.528122 
	C223.944168,159.859818 232.188507,159.191498 240.432861,158.523178 
	C240.676453,159.005371 240.920059,159.487564 241.163651,159.969757 
	C240.386505,160.646988 239.715454,161.675446 238.815826,161.947220 
	C229.679443,164.707214 220.490952,167.294418 211.349411,170.037811 
	C207.377533,171.229782 203.540024,173.493134 199.534058,173.782455 
	C195.011658,174.109055 190.368439,172.762772 183.899521,171.890854 
	C179.896408,173.442383 182.917648,178.311356 183.176559,182.056274 
	C183.807632,191.184509 185.169907,200.260330 185.912949,209.383728 
	C186.146896,212.256332 185.349121,215.212952 185.094330,218.564697 
M129.284195,119.522392 
	C129.461838,119.964691 129.639481,120.406998 129.817123,120.849304 
	C129.883774,120.465805 129.950424,120.082306 129.284195,119.522392 
z"/>
<path fill="#000000" opacity="1.000000" stroke="none" 
	d="
M143.998001,252.306168 
	C146.870544,227.243210 152.163483,203.403183 171.514114,184.133926 
	C171.514114,192.077866 171.963928,199.086258 171.415115,206.015549 
	C170.443085,218.288544 165.884048,229.616455 161.102646,240.830124 
	C160.800552,241.538651 161.035461,242.476166 161.093018,243.716064 
	C159.114548,249.908813 156.843277,255.627472 155.105637,261.503937 
	C154.237030,264.441437 154.285645,267.662262 154.022308,270.763672 
	C153.677734,274.821350 153.871445,278.491364 159.945541,276.539246 
	C157.848984,280.418671 156.009949,283.821564 153.730911,287.267212 
	C153.165329,287.183655 153.039780,287.057312 152.914215,286.930969 
	C152.323807,279.406830 152.414001,271.740295 150.881027,264.413361 
	C149.998428,260.194916 146.489578,256.525970 143.998001,252.306168 
z"/>
<path fill="#000000" opacity="1.000000" stroke="none" 
	d="
M153.470306,287.507935 
	C153.414627,288.095642 153.202026,288.501648 152.935837,288.868835 
	C152.782242,289.080750 152.542099,289.229950 152.013474,289.696136 
	C152.176346,288.648834 152.286163,287.942688 152.655090,287.083771 
	C153.039780,287.057312 153.165329,287.183655 153.470306,287.507935 
z"/>
<path fill="#000000" opacity="1.000000" stroke="none" 
	d="
M120.290573,288.545959 
	C119.857979,288.486969 119.617126,288.205109 119.376266,287.923218 
	C119.744949,288.056488 120.113632,288.189758 120.290573,288.545959 
z"/>
<path fill="#000000" opacity="1.000000" stroke="none" 
	d="
M135.509995,105.523941 
	C135.975891,105.820992 136.246109,106.302422 136.516312,106.783852 
	C136.061905,106.731277 135.607513,106.678696 135.040955,106.354660 
	C135.057312,105.958244 135.185822,105.833290 135.509995,105.523941 
z"/>
<path fill="#000000" opacity="1.000000" stroke="none" 
	d="
M132.509995,112.523941 
	C132.975891,112.820992 133.246094,113.302422 133.516312,113.783852 
	C133.061905,113.731277 132.607513,113.678696 132.040955,113.354660 
	C132.057312,112.958244 132.185822,112.833290 132.509995,112.523941 
z"/>
<path fill="#000000" opacity="1.000000" stroke="none" 
	d="
M129.650635,119.610596 
	C129.950424,120.082306 129.883774,120.465805 129.817108,120.849304 
	C129.639481,120.406998 129.461838,119.964691 129.650635,119.610596 
z"/>
</svg>